# xmcd
#
# Track frame offsets:
#	150
#	7055
#	17714
#	30054
#	42740
#	51839
#	63142
#	76224
#	88086
#	99771
#	108447
#	118340
#	127092
#	138466
#	151871
#
# Disc length: 2107 seconds
#
# Revision: 2
# Processed by: cddbd v1.5.2PL0 Copyright (c) Steve Scherf et al.
# Submitted via: EZCDDA 4.3.2
#
DISCID=bc08390f
DTITLE=Ancient Necropsy - Apocalyptic Empire
DYEAR=1900
DGENRE=
TTITLE0=Intro- The Chosen One
TTITLE1=Enemies Incineration
TTITLE2=Ghost Of Death Valley
TTITLE3=Malignant Matters Collapse
TTITLE4=Enthroned At The Apocalyptic Empire
TTITLE5=Ridiculous Preacher
TTITLE6=Fallen Angels Executed
TTITLE7=Cold Mountains Of Death
TTITLE8=Injured By Extrasensorial Command
TTITLE9=Undethronement Of Inner Power
TTITLE10=Old Man Decrepit Frozen
TTITLE11=Nuclear Wind
TTITLE12=The False Prophet
TTITLE13=Master Of Knowledge
TTITLE14=Blizzard Devastation
EXTD=
EXTT0=
EXTT1=
EXTT2=
EXTT3=
EXTT4=
EXTT5=
EXTT6=
EXTT7=
EXTT8=
EXTT9=
EXTT10=
EXTT11=
EXTT12=
EXTT13=
EXTT14=
PLAYORDER=
